<svg id="图层_1" data-name="图层 1" xmlns="http://www.w3.org/2000/svg" viewBox="0 0 512 512"><defs><style>.cls-1{fill:#d85d84;}</style></defs><path class="cls-1" d="M86.1,371.74c0,40.17,45.51,68.42,85.68,68.42H335.86c40.17,0,85.68-28.25,85.68-68.42V280.66a10.89,10.89,0,0,0-10.88-10.89H318.78a10.89,10.89,0,0,0-10.88,10.89v98.08A18.29,18.29,0,0,1,289.61,397H217a18.29,18.29,0,0,1-18.29-18.29V214.53a21.7,21.7,0,0,1,4.66-13.44l3.44-3.18a10.39,10.39,0,0,0,3.15-9.57l-1.41-7.41a10.37,10.37,0,0,0-9.57-8.41l-85-5.11a15,15,0,0,0-13.75,6.69v0l-10,22A45.26,45.26,0,0,0,86.1,214.9Z"/><rect class="cls-1" x="-0.2" y="76.82" width="110" height="110" rx="10.1"/><rect class="cls-1" x="204.81" y="80.1" width="110" height="110" rx="10.1" transform="translate(-19.37 46.7) rotate(-9.9)"/><rect class="cls-1" x="395.14" y="178.94" width="110" height="110" rx="10.1" transform="translate(45.48 -72) rotate(9.63)"/></svg>